<svg xmlns="http://www.w3.org/2000/svg" viewBox="0 0 850.39 850.39"><defs><style>.cls-1{fill:#fff;}</style></defs><title>Logo</title><g id="Layer_2" data-name="Layer 2"><g id="Layer_1-2" data-name="Layer 1"><path class="cls-1" d="M425.2,0A423.22,423.22,0,0,0,185.28,74.11L367.43,256.26h0l40.19,40.19L481.06,223c78.58-78.58,159.39-85.53,252.23,7.07C779.3,276,793,337.31,793,337.31l-90,67.2s-21.25-39-41.93-58.13c-36.14-36.14-54.22-22.79-79.36,2.36L520.78,409.6,611.14,500,510.56,584.82l-82.5-82.5L167.19,763.19a423.33,423.33,0,0,0,258,87.2c234.83,0,425.2-190.37,425.2-425.2S660,0,425.2,0Z"/><path class="cls-1" d="M268,342.23h0L89.7,164A425.41,425.41,0,0,0,60.38,643.7L314.91,389.17Z"/></g></g></svg>